<svg xmlns="http://www.w3.org/2000/svg" viewBox="0 0 1440 320"><path fill="#FFB3B3" fill-opacity="1" d="M0,224L30,224C60,224,120,224,180,240C240,256,300,288,360,282.7C420,277,480,235,540,197.3C600,160,660,128,720,149.3C780,171,840,245,900,240C960,235,1020,149,1080,138.7C1140,128,1200,192,1260,197.3C1320,203,1380,149,1410,122.7L1440,96L1440,0L1410,0C1380,0,1320,0,1260,0C1200,0,1140,0,1080,0C1020,0,960,0,900,0C840,0,780,0,720,0C660,0,600,0,540,0C480,0,420,0,360,0C300,0,240,0,180,0C120,0,60,0,30,0L0,0Z"></path></svg>